/* XPM */
static char * digits_small2_xpm[] = {
"204 24 36 1",
" 	c None",
".	c #000000",
"+	c #143002",
"@	c #50BF07",
"#	c #286003",
"$	c #071001",
"%	c #49AF06",
"&	c #439F06",
"*	c #0D2001",
"=	c #225003",
"-	c #1B4002",
";	c #2F7004",
">	c #368005",
",	c #3C8F05",
"'	c #57CF07",
")	c #6BFF09",
"!	c #64EF08",
"~	c #225103",
"{	c #5EDF08",
"]	c #3D9006",
"^	c #70FF09",
"/	c #3F9506",
"(	c #7BFF0A",
"_	c #56CD07",
":	c #4EB907",
"<	c #7DFF0A",
"[	c #45A406",
"}	c #46A706",
"|	c #378305",
"1	c #081301",
"2	c #75FF09",
"3	c #0F2501",
"4	c #1F4B02",
"5	c #65F108",
"6	c #5DDF08",
"7	c #173802",
"............................................................................................................................................................................................................",
"............................................................................................................................................................................................................",
".....+@@@@@@#.............$%@@&*.......#@@@@@@=.........#@@@@@@-........;+......$>......$,@@@@@@@#.........#@@@@@@+........#@@@@@@@,+........,@@@@@@$.........#@@@@@@*......................................",
"....*'))))))!+............>))%'+......$!))))))@*.......$!))))))@*......;)@......%);.....>%'))))))!$.......+)))))))@.......$!))))))'%;.......>))))))),$.......-))))))),$.....................................",
"...=!@>>>>>>&)=............>>')........+>>>>>>'!*.......=>>>>>>%!*.....>)@......@);.....>)@>>>>>>+.......;)&>>>>>>$........+>>>>>>@)-......%!,>>>>>>''......,)>>>>>>>''.....................................",
"...>)%......@)>.............-))...............))-..............))-.....>)%......!)-.....>)@..............@)>......................))-......))-.....-))......')-.....-)).....................................",
"...@)>......!)-.............~){..............+))..............+))$.....@)>......))-.....@)>..............{)-.....................$))*.....+))$.....#)'......))-.....#)@.....................................",
"...@)>......))-.............]^@..............-))..............-))......@)>......))*.....@)>..............))-.....................-))......-))......>)@......))+.....>)@.....................................",
"...');......))+............./(_..............-)!..............=))......')#.....-))......');..............))+.....................-))......=))......>)@.....$))......>)&.....................................",
"...))-.....-))..............:<[..............;)@..............>)@......))-.....-))......))-.............-))......................=)'......>)@......&)>.....-))......%)>.....................................",
"...!!+.....+)'..............}<|........;>>>>>&),.......$>>>>>>,),......'',>>>>>;!&......'',>>>>>#.......*!{>>>>>>-...............=)%......=)@>>>>>>@)=.....*!%>>>>>>@!+.....................................",
"...--.......;$..............1|.......$%)))))))=........@))))))!+.......$,)))))))#.......$,)))))))-.......*@))))))!$...............;........+!))))))'*.......*@)))))){*......................................",
"..$''......+!,..............:23.....$'&@@@@@@#.........=@@@@@@&{+.......*@@@@@@@!=.......*@@@@@@%'#.....+'%@@@@@@%{+.............#)=......#{&@@@@@@&'$.......#@@@@@@,'$.....................................",
"..-))......>)@..............<<4.....#)@.......................@)>..............>)&..............>)@.....>)@......@)>.............@)>......@)>......))-..............))-.....................................",
"..;)'......&),..............<<4.....>)@.......................');..............@)>..............,),.....,)&......{)#.............@)>......{)#.....$))-..............))+.....................................",
"..>)@......@)>.............3<<......>)%.......................))-..............@)>..............@)>.....@)>......))-.............{)#......))-.....-))..............*))......................................",
"..>)@......@)>.............4<<......&)>.......................))-..............@)=..............@)>.....@)>......))-.............))-......))-.....-))..............-))......................................",
"..@)>......!)=.............4<<......@)>......................*))$..............))-..............{)=.....!)=.....+))$.............))-.....+))$.....=)!..............-){......................................",
"..%)>------!)+.............|<5......@);-----+..........+-----#)!...............))-.......*------!)+.....!)#-----#)!.............+))$.....+)!------>)%........+-----#)%............................./1.......",
"..$>!)))))),+............../<6......!&!))))))=........#)))))))&+...............)).......+!))))))%+......+,))))))),+.............-)).......=@))))))!&$.......#))))))!&$............................/<6.......",
"...${)))))!+...............167......@)))))))'$........+!)))))'$................&#.......$')))))!+........+!)))))'$...............&#........#))))))&.........-))))))&..............................167.......",
"............................................................................................................................................................................................................",
"............................................................................................................................................................................................................",
"............................................................................................................................................................................................................"};
