<?xml version="1.0" encoding="UTF-8" standalone="no"?>
<svg
   height="16px"
   viewBox="0 0 16 16"
   width="16px"
   version="1.1"
   id="svg1"
   sodipodi:docname="enter.svg"
   inkscape:version="1.4.2 (ebf0e940d0, 2025-05-08)"
   xmlns:inkscape="http://www.inkscape.org/namespaces/inkscape"
   xmlns:sodipodi="http://sodipodi.sourceforge.net/DTD/sodipodi-0.dtd"
   xmlns="http://www.w3.org/2000/svg"
   xmlns:svg="http://www.w3.org/2000/svg">
  <defs
     id="defs1" />
  <sodipodi:namedview
     id="namedview1"
     pagecolor="#ffffff"
     bordercolor="#000000"
     borderopacity="0.25"
     inkscape:showpageshadow="2"
     inkscape:pageopacity="0.0"
     inkscape:pagecheckerboard="0"
     inkscape:deskcolor="#d1d1d1"
     inkscape:zoom="80.5625"
     inkscape:cx="8"
     inkscape:cy="8"
     inkscape:window-width="2560"
     inkscape:window-height="1534"
     inkscape:window-x="0"
     inkscape:window-y="0"
     inkscape:window-maximized="1"
     inkscape:current-layer="svg1" />
  <path
     d="m 4.9999999,14 c -0.265625,0 -0.519531,-0.105469 -0.707031,-0.292969 L 0.29296889,9.7070309 c -0.390625,-0.390625 -0.390625,-1.023437 0,-1.414062 l 4.00000001,-4 c 0.390625,-0.390625 1.023437,-0.390625 1.414062,0 0.3906249,0.390625 0.3906249,1.023437 0,1.414062 l -2.292969,2.292969 H 12 c 1.117188,0 2,-0.882812 2,-2 v -3 c 0,-0.550781 0.449219,-1 1,-1 0.550781,0 1,0.449219 1,1 v 3 c 0,0.023438 0,0.046875 -0.0039,0.070312 C 15.960937,8.2343749 14.175781,9.9999999 12,9.9999999 H 3.4140619 l 2.292969,2.2929691 c 0.3906249,0.390625 0.3906249,1.023437 0,1.414062 C 5.5195309,13.894531 5.2656249,14 4.9999999,14 Z m 0,0"
     fill="currentColor"
     id="path1" />
</svg>
