<?xml version="1.0" encoding="UTF-8" standalone="no"?>
<svg
   height="16px"
   viewBox="0 0 16 16"
   width="16px"
   version="1.1"
   id="svg2"
   sodipodi:docname="scan.svg"
   inkscape:version="1.4.2 (ebf0e940d0, 2025-05-08)"
   xmlns:inkscape="http://www.inkscape.org/namespaces/inkscape"
   xmlns:sodipodi="http://sodipodi.sourceforge.net/DTD/sodipodi-0.dtd"
   xmlns="http://www.w3.org/2000/svg"
   xmlns:svg="http://www.w3.org/2000/svg">
  <defs
     id="defs2" />
  <sodipodi:namedview
     id="namedview2"
     pagecolor="#ffffff"
     bordercolor="#111111"
     borderopacity="1"
     inkscape:showpageshadow="0"
     inkscape:pageopacity="0"
     inkscape:pagecheckerboard="1"
     inkscape:deskcolor="#d1d1d1"
     inkscape:zoom="80.5625"
     inkscape:cx="8.0062064"
     inkscape:cy="8"
     inkscape:window-width="2560"
     inkscape:window-height="1534"
     inkscape:window-x="0"
     inkscape:window-y="0"
     inkscape:window-maximized="1"
     inkscape:current-layer="svg2" />
  <path
     d="m 13,5 v 0.00391 c 0.265625,0 0.519531,0.105469 0.707031,0.289063 l 2,2 c 0.390625,0.390625 0.390625,1.023437 0,1.414062 l -2,2 C 13.519531,10.890625 13.265625,10.996094 13,10.992188 V 11 H 12 V 9 H 7 C 6.449219,9 6,8.550781 6,8 6,7.449219 6.449219,7 7,7 h 5 V 5 Z m 0,0"
     id="path1"
     style="fill:#000000" />
  <path
     d="m 3.0310316,4.9930179 v 0.00391 c -0.265625,0 -0.519531,0.105469 -0.707031,0.289063 l -2.00000004,2 c -0.390625,0.390625 -0.390625,1.023437 0,1.414062 L 2.3240006,10.700053 c 0.1875,0.18359 0.441406,0.289059 0.707031,0.285153 v 0.0078 h 1 V 8.9930159 h 5.0000003 c 0.550781,0 1.0000001,-0.449219 1.0000001,-1 0,-0.550781 -0.4492191,-1 -1.0000001,-1 H 4.0310316 v -2 z m 0,0"
     id="path1-6"
     style="fill:#000000" />
  <path
     d="M 7.1171451,2.7843289 V 12.784329 h 2 V 2.7843289 Z m 0,0"
     fill="currentColor"
     id="path1-3" />
</svg>
