/* XPM */
static char * timer_xpm[] = {
"16 16 17 1",
" 	c None",
".	c #000000",
"+	c #BF0000",
"@	c #00BF00",
"#	c #BFBF00",
"$	c #0000BF",
"%	c #BF00BF",
"&	c #00BFBF",
"*	c #C0C0C0",
"=	c #808080",
"-	c #FF0000",
";	c #00FF00",
">	c #FFFF00",
",	c #0000FF",
"'	c #FF00FF",
")	c #00FFFF",
"!	c #FFFFFF",
"      ...       ",
"  =..  .  ..=   ",
" .=**.=.=.**=.  ",
".****==.=****=. ",
".**=.......*==. ",
".....-----..... ",
"  ..-*!.!*-..   ",
" =.-*.!.!.*-.=  ",
" .--!!!.!!!--.  ",
" .-.!!!.!!..-.  ",
" .--!!.!!!!--.  ",
" =.-*.!!!.*-.=  ",
"  ..-*!.!*-..   ",
"  +...-.-...+   ",
" ..+ ..... +..  ",
"                "};
